<?xml version="1.0" standalone="no"?>
<!DOCTYPE svg PUBLIC "-//W3C//DTD SVG 20010904//EN"
 "http://www.w3.org/TR/2001/REC-SVG-20010904/DTD/svg10.dtd">
<svg version="1.0" xmlns="http://www.w3.org/2000/svg"
 width="220.000000pt" height="220.000000pt" viewBox="0 0 220.000000 220.000000"
 preserveAspectRatio="xMidYMid meet">
<metadata>
Created by potrace 1.11, written by Peter Selinger 2001-2013
</metadata>
<g transform="translate(0.000000,220.000000) scale(0.100000,-0.100000)"
fill="#000000" stroke="none">
<path d="M956 2099 c-220 -32 -423 -136 -577 -296 -206 -213 -301 -464 -286
-757 8 -148 36 -258 102 -391 180 -367 549 -583 959 -562 447 23 821 336 928
777 22 90 31 308 15 382 l-8 36 -66 8 c-74 7 -456 -1 -489 -11 -18 -6 -22 -17
-27 -66 -4 -44 -18 -86 -55 -162 -71 -143 -76 -167 -77 -362 -1 -147 -4 -170
-17 -173 -19 -4 -70 66 -86 118 -6 19 -15 81 -21 136 -14 145 -41 191 -107
181 -20 -3 -62 -22 -93 -41 -236 -145 -423 -245 -496 -265 -67 -18 -155 -13
-155 9 0 5 41 30 92 57 93 49 320 192 305 193 -5 0 -80 -18 -167 -40 -114 -29
-180 -41 -237 -42 -87 -1 -126 7 -120 25 2 6 104 46 228 87 123 42 240 84 259
93 l35 17 -40 -5 c-103 -14 -322 -17 -357 -6 -34 11 -66 37 -57 45 2 2 85 16
184 30 99 14 211 34 250 44 l70 18 -90 18 c-166 32 -265 74 -265 113 0 12 7
14 28 9 113 -26 203 -37 308 -37 66 0 129 3 140 7 26 10 236 175 310 246 34
32 75 63 90 69 16 6 99 15 184 19 298 17 368 22 380 30 17 10 -56 105 -142
185 -221 207 -536 307 -832 264z"/>
</g>
</svg>
