<?xml version="1.0" standalone="no"?>
<!DOCTYPE svg PUBLIC "-//W3C//DTD SVG 20010904//EN"
 "http://www.w3.org/TR/2001/REC-SVG-20010904/DTD/svg10.dtd">
<svg version="1.0" xmlns="http://www.w3.org/2000/svg"
 width="1031.000000pt" height="1031.000000pt" viewBox="0 0 1031.000000 1031.000000"
 preserveAspectRatio="xMidYMid meet">
<metadata>
Created by potrace 1.11, written by Peter Selinger 2001-2013
</metadata>
<g transform="translate(0.000000,1031.000000) scale(0.100000,-0.100000)"
fill="#000000" stroke="none">
<path d="M5335 10082 c6 -5 75 -37 155 -71 322 -137 494 -259 693 -494 54 -64
85 -77 184 -77 88 0 208 -18 269 -41 253 -95 469 -410 556 -813 29 -135 32
-470 5 -581 -90 -368 -88 -473 10 -554 93 -77 219 -66 361 31 55 38 72 27 43
-28 -28 -53 -39 -65 -90 -102 -92 -67 -260 -92 -346 -53 -22 10 -68 39 -101
65 -34 25 -67 46 -73 46 -31 0 5 -119 103 -334 106 -233 105 -268 -4 -295
-115 -30 -124 -43 -84 -131 25 -56 26 -61 10 -84 -8 -14 -34 -39 -55 -57 -50
-40 -86 -91 -112 -160 -33 -85 -42 -92 -172 -119 -69 -14 -81 -29 -109 -133
-28 -105 -60 -170 -115 -228 -57 -61 -108 -89 -161 -89 -64 0 -109 29 -350
223 -72 57 -158 97 -210 97 -130 0 -210 -122 -337 -510 -123 -379 -160 -590
-121 -685 50 -120 94 -145 254 -145 154 0 212 15 407 103 234 105 345 132 519
125 136 -6 238 -37 340 -104 220 -146 564 -527 1596 -1770 146 -175 293 -348
328 -384 77 -80 79 -96 -38 265 -293 901 -403 1403 -387 1765 7 153 20 199
105 360 106 202 226 369 394 546 170 180 212 243 243 371 21 87 35 103 73 81
60 -37 79 -134 45 -239 -10 -30 -50 -103 -90 -163 -103 -154 -108 -186 -33
-224 82 -42 175 -6 296 113 90 90 160 194 254 379 90 179 103 191 199 191 95
0 103 -9 95 -101 -4 -41 -5 -74 -2 -74 3 0 22 14 44 30 21 17 47 30 58 28 18
-3 21 -10 21 -58 0 -46 -9 -74 -48 -154 -49 -102 -56 -126 -35 -126 37 0 176
56 200 81 38 38 37 89 -7 306 -50 241 -86 378 -160 599 -312 932 -926 1777
-1720 2367 -325 242 -704 465 -1050 618 -449 198 -1222 378 -1705 396 -104 4
-152 2 -145 -5z"/>
<path d="M4217 10014 c-276 -43 -764 -192 -1097 -336 -999 -432 -1852 -1201
-2381 -2144 -228 -407 -429 -952 -533 -1449 -65 -311 -100 -1160 -52 -1270 9
-21 22 -43 29 -47 70 -45 461 100 702 260 196 130 505 492 624 730 56 112 145
348 138 366 -10 26 -115 21 -205 -10 -147 -49 -290 -148 -392 -269 -35 -41
-64 -74 -66 -72 -9 9 41 188 79 282 111 274 227 447 437 648 166 160 297 251
561 392 79 42 153 85 164 97 l20 20 -40 31 c-170 136 -273 286 -320 466 -19
73 -33 271 -19 270 5 0 36 -32 69 -71 105 -124 199 -168 315 -146 239 44 530
350 1085 1138 450 640 631 840 971 1074 42 28 53 41 43 47 -17 11 -23 10 -132
-7z"/>
<path d="M10035 5601 c-262 -136 -419 -237 -611 -393 -153 -124 -280 -216
-389 -285 -106 -66 -152 -89 -258 -129 -112 -41 -131 -57 -124 -106 7 -49 134
-319 423 -893 330 -658 498 -975 516 -975 11 0 176 336 245 500 221 522 346
1112 360 1695 6 223 -10 592 -26 637 -5 15 -24 8 -136 -51z"/>
<path d="M140 4655 c0 -2 16 -91 35 -197 143 -781 392 -1419 780 -1998 129
-193 251 -346 433 -543 264 -285 562 -550 837 -744 158 -111 197 -125 215 -77
37 96 64 436 95 1169 8 198 20 428 25 510 41 585 127 878 341 1155 85 110 311
344 411 426 39 33 85 72 102 87 l31 28 -45 -22 c-238 -114 -549 -396 -719
-649 -93 -140 -190 -393 -256 -675 -20 -88 -41 -166 -44 -173 -10 -17 -106
186 -128 271 -14 52 -17 99 -13 287 2 124 4 259 4 300 l1 74 -50 20 c-206 79
-543 -95 -957 -493 -81 -77 -118 -107 -118 -95 0 36 39 174 70 247 44 105 116
211 222 323 51 54 87 99 81 101 -6 2 -46 -5 -89 -16 -237 -60 -572 -49 -713
24 -41 21 -101 74 -101 90 0 8 22 14 65 17 83 7 193 58 257 120 90 88 147 198
119 232 -16 20 -107 34 -301 46 -234 16 -330 37 -468 105 -115 56 -122 59
-122 50z"/>
<path d="M7280 2725 c0 -9 110 -162 179 -250 86 -109 239 -284 396 -454 257
-279 320 -372 384 -564 22 -69 41 -132 41 -142 0 -9 4 -15 9 -13 9 3 381 338
381 343 0 1 -100 67 -222 146 -413 265 -606 416 -975 761 -106 98 -193 176
-193 173z"/>
<path d="M3924 2298 c-86 -28 -210 -165 -282 -312 -119 -242 -327 -1027 -339
-1281 l-6 -110 133 -48 c375 -135 1165 -306 1194 -258 14 22 -116 279 -321
635 -201 350 -321 539 -425 669 -28 35 -30 117 -4 192 32 96 87 135 187 135
107 0 143 -24 332 -223 272 -287 291 -306 295 -279 11 77 -131 361 -285 570
-118 160 -253 276 -359 308 -53 16 -76 16 -120 2z"/>
</g>
</svg>
